<svg width="60" height="60" viewBox="0 0 60 60" fill="none" xmlns="http://www.w3.org/2000/svg">
    <rect y="0.00195312" width="60" height="60" rx="30" fill="#87D459"/>
    <path d="M25.0316 31.2429L24.3851 30.4799L24.3851 30.4799L25.0316 31.2429ZM25.1058 31.1718L24.3934 30.4701L24.3926 30.4709L25.1058 31.1718ZM21.9815 33.8272L21.3351 33.0642L21.3351 33.0642L21.9815 33.8272ZM21.8145 34.0031L22.6353 34.5743L22.6353 34.5743L21.8145 34.0031ZM38.0051 31.3509L37.3126 32.0722L38.0051 31.3509ZM35.402 28.8519L34.7095 29.5733V29.5733L35.402 28.8519ZM34.4353 28.8451L33.753 28.114L33.7505 28.1164L34.4353 28.8451ZM29.6137 33.3767L30.296 34.1078L30.2985 34.1054L29.6137 33.3767ZM28.6321 33.3553L27.9161 34.0534L27.9176 34.0549L28.6321 33.3553ZM28.6194 33.3423L27.9028 34.0397L27.9035 34.0404L28.6194 33.3423ZM28.5505 33.2754L29.2053 32.5195L29.2052 32.5195L28.5505 33.2754ZM26.2016 31.2409L26.8564 30.485L26.8564 30.485L26.2016 31.2409ZM26.1325 31.1737L26.8494 30.4765L26.8487 30.4758L26.1325 31.1737ZM26.1201 31.161L26.8363 30.4631L26.8349 30.4617L26.1201 31.161ZM25.1192 31.1582L24.4081 30.4551L24.4067 30.4565L25.1192 31.1582ZM36.0743 22.4079V21.4079C35.5221 21.4079 35.0743 21.8556 35.0743 22.4079H36.0743ZM36.5569 22.4079H37.5569C37.5569 21.8556 37.1092 21.4079 36.5569 21.4079V22.4079ZM36.5569 22.8166V23.8166C37.1092 23.8166 37.5569 23.3689 37.5569 22.8166H36.5569ZM36.0743 22.8166H35.0743C35.0743 23.3689 35.5221 23.8166 36.0743 23.8166V22.8166ZM15.5 21.5645V38.4395H17.5V21.5645H15.5ZM21.5625 44.502H38.4375V42.502H21.5625V44.502ZM44.5 38.4395V21.5645H42.5V38.4395H44.5ZM38.4375 15.502H21.5625V17.502H38.4375V15.502ZM44.5 21.5645C44.5 18.2162 41.7857 15.502 38.4375 15.502V17.502C40.6812 17.502 42.5 19.3208 42.5 21.5645H44.5ZM38.4375 44.502C41.7857 44.502 44.5 41.7877 44.5 38.4395H42.5C42.5 40.6831 40.6812 42.502 38.4375 42.502V44.502ZM15.5 38.4395C15.5 41.7877 18.2143 44.502 21.5625 44.502V42.502C19.3188 42.502 17.5 40.6831 17.5 38.4395H15.5ZM17.5 21.5645C17.5 19.3208 19.3188 17.502 21.5625 17.502V15.502C18.2143 15.502 15.5 18.2162 15.5 21.5645H17.5ZM25.678 32.0059C25.7448 31.9493 25.8005 31.8916 25.8191 31.8727L24.3926 30.4709C24.3862 30.4773 24.3822 30.4814 24.3785 30.4851C24.375 30.4886 24.3732 30.4904 24.3724 30.4912C24.3705 30.4931 24.3755 30.4881 24.3851 30.4799L25.678 32.0059ZM22.628 34.5901L25.678 32.0058L24.3851 30.4799L21.3351 33.0642L22.628 34.5901ZM22.6353 34.5743C22.6216 34.5939 22.6113 34.6047 22.6098 34.6063C22.6089 34.6072 22.6097 34.6063 22.6128 34.6034C22.6159 34.6006 22.6208 34.5963 22.628 34.5901L21.3351 33.0642C21.2444 33.141 21.1115 33.2626 20.9937 33.4319L22.6353 34.5743ZM22.5625 34.8063C22.5625 34.7231 22.5881 34.6421 22.6353 34.5743L20.9937 33.4319C20.7139 33.8339 20.5625 34.3133 20.5625 34.8063H22.5625ZM22.5625 37.7363V34.8063H20.5625V37.7363H22.5625ZM22.2656 37.4395C22.4296 37.4395 22.5625 37.5724 22.5625 37.7363H20.5625C20.5625 38.6769 21.325 39.4395 22.2656 39.4395V37.4395ZM37.7344 37.4395H22.2656V39.4395H37.7344V37.4395ZM37.4375 37.7363C37.4375 37.5724 37.5704 37.4395 37.7344 37.4395V39.4395C38.675 39.4395 39.4375 38.6769 39.4375 37.7363H37.4375ZM37.4375 32.3653V37.7363H39.4375V32.3653H37.4375ZM37.3126 32.0722C37.3924 32.1489 37.4375 32.2547 37.4375 32.3653H39.4375C39.4375 31.7101 39.1703 31.0832 38.6977 30.6295L37.3126 32.0722ZM34.7095 29.5733L37.3126 32.0722L38.6977 30.6295L36.0945 28.1305L34.7095 29.5733ZM35.1176 29.5761C35.0024 29.6837 34.8232 29.6824 34.7095 29.5733L36.0945 28.1305C35.4422 27.5042 34.4141 27.497 33.753 28.114L35.1176 29.5761ZM30.2985 34.1054L35.1202 29.5737L33.7505 28.1164L28.9288 32.648L30.2985 34.1054ZM27.9176 34.0549C28.5585 34.7094 29.6145 34.7438 30.296 34.1078L28.9313 32.6457C29.0505 32.5345 29.2342 32.5409 29.3466 32.6557L27.9176 34.0549ZM27.9035 34.0404L27.9161 34.0534L29.3481 32.6571L29.3354 32.6441L27.9035 34.0404ZM27.8958 34.0313C27.8868 34.0235 27.8823 34.0189 27.884 34.0206C27.8848 34.0213 27.8865 34.023 27.8897 34.0263C27.8932 34.0298 27.8969 34.0337 27.9028 34.0397L29.3361 32.6448C29.3188 32.6271 29.267 32.573 29.2053 32.5195L27.8958 34.0313ZM25.5469 31.9967L27.8958 34.0313L29.2052 32.5195L26.8564 30.485L25.5469 31.9967ZM25.4156 31.8709C25.433 31.8888 25.4849 31.943 25.5469 31.9967L26.8564 30.485C26.8653 30.4928 26.8699 30.4974 26.8682 30.4957C26.8674 30.4949 26.8657 30.4932 26.8625 30.4899C26.859 30.4864 26.8553 30.4826 26.8494 30.4765L25.4156 31.8709ZM25.4039 31.8589L25.4163 31.8716L26.8487 30.4758L26.8363 30.4631L25.4039 31.8589ZM25.8302 31.8614C25.7124 31.9805 25.5225 31.9802 25.4052 31.8602L26.8349 30.4617C26.1703 29.7822 25.0756 29.7801 24.4081 30.4551L25.8302 31.8614ZM25.8183 31.8735L25.8317 31.8599L24.4067 30.4565L24.3934 30.4701L25.8183 31.8735ZM36.0743 23.4079H36.5569V21.4079H36.0743V23.4079ZM35.5569 22.4079V22.8166H37.5569V22.4079H35.5569ZM36.5569 21.8166H36.0743V23.8166H36.5569V21.8166ZM37.0743 22.8166V22.4079H35.0743V22.8166H37.0743Z"
          fill="white"/>
</svg>
