<svg width="22" height="22" viewBox="0 0 22 22" fill="none" xmlns="http://www.w3.org/2000/svg">
    <path d="M15.0472 5.03399C14.4882 5.03399 13.9683 5.11473 13.4876 5.27621C13.0068 5.43769 12.5689 5.59741 12.1739 5.75538C11.7789 5.91335 11.436 5.99234 11.1453 5.99234C10.8397 5.99234 10.5006 5.91686 10.1279 5.76591C9.75526 5.61497 9.35464 5.46577 8.92606 5.31833C8.49749 5.17089 8.04098 5.09717 7.55651 5.09717C6.63974 5.09717 5.75651 5.33237 4.90682 5.80277C4.05714 6.27318 3.36024 6.96824 2.81615 7.88798C2.27205 8.80772 2 9.94161 2 11.2897C2 12.1321 2.10435 12.9746 2.31304 13.8171C2.52174 14.6597 2.80124 15.4565 3.15155 16.2078C3.50186 16.959 3.88943 17.6224 4.31427 18.1982C4.86583 18.9214 5.40434 19.5427 5.92981 20.0622C6.45527 20.5818 7.06458 20.8416 7.75775 20.8416C8.21241 20.8416 8.60743 20.7714 8.94283 20.631C9.27824 20.4905 9.63414 20.3483 10.0105 20.2044C10.3869 20.0605 10.8584 19.9885 11.4248 19.9885C11.8571 19.9885 12.2186 20.0306 12.5093 20.1148C12.8 20.1991 13.0664 20.2956 13.3087 20.4045C13.5509 20.5133 13.8062 20.6099 14.0745 20.6942C14.3428 20.7783 14.667 20.8204 15.0472 20.8204C15.5466 20.8204 15.9956 20.6958 16.3943 20.4467C16.7931 20.1974 17.1621 19.8762 17.5012 19.483C17.8403 19.0898 18.1702 18.6791 18.4906 18.2508C18.841 17.7664 19.1261 17.3013 19.346 16.8554C19.5658 16.4096 19.7279 16.0445 19.8323 15.7602C19.9366 15.4759 19.9925 15.3196 20 15.2915C19.9776 15.2845 19.8155 15.2055 19.5137 15.0546C19.2117 14.9036 18.8689 14.6631 18.485 14.3331C18.1012 14.0032 17.7658 13.5714 17.4788 13.0378C17.1919 12.5042 17.0484 11.8513 17.0484 11.0789C17.0484 10.405 17.1621 9.824 17.3894 9.33604C17.6167 8.84809 17.8832 8.44439 18.1887 8.12494C18.4943 7.80548 18.7683 7.56151 19.0105 7.39301C19.2528 7.2245 19.3925 7.12972 19.4298 7.10866C19.0571 6.60316 18.6509 6.20999 18.2112 5.92915C17.7714 5.64831 17.3391 5.44471 16.9142 5.31833C16.4894 5.19196 16.1111 5.11297 15.7794 5.08137C15.4478 5.04978 15.2037 5.03399 15.0472 5.03399ZM14.2646 3.32791C14.6074 2.94176 14.8869 2.49418 15.1031 1.98516C15.3192 1.47614 15.4273 0.95133 15.4273 0.410722C15.4273 0.256263 15.4161 0.119356 15.3937 0C14.8347 0.0210627 14.2515 0.179033 13.6441 0.473911C13.0366 0.768788 12.5354 1.13738 12.1403 1.5797C11.8198 1.9167 11.5366 2.33796 11.2907 2.84347C11.0447 3.34897 10.9217 3.86851 10.9217 4.4021C10.9217 4.48635 10.9273 4.56359 10.9385 4.6338C10.9497 4.704 10.959 4.75315 10.9664 4.78123C11.0633 4.80229 11.1639 4.81283 11.2683 4.81283C11.7677 4.81283 12.2987 4.67241 12.8615 4.39158C13.4242 4.11074 13.8919 3.75618 14.2646 3.32791Z"
          fill="white"/>
</svg>
