<svg width="60" height="60" viewBox="0 0 60 60" fill="none" xmlns="http://www.w3.org/2000/svg">
    <rect y="0.00195312" width="60" height="60" rx="30" fill="#6492DD"/>
    <path d="M22.8 21.1821V22.1821C23.1557 22.1821 23.4846 21.9931 23.6638 21.6859L22.8 21.1821ZM25.32 16.8621V15.8621C24.9643 15.8621 24.6354 16.051 24.4562 16.3582L25.32 16.8621ZM34.68 16.8621L35.5438 16.3582C35.3646 16.051 35.0357 15.8621 34.68 15.8621V16.8621ZM37.2 21.1821L36.3362 21.6859C36.5154 21.9931 36.8443 22.1821 37.2 22.1821V21.1821ZM16.6 39.5421V24.7821H14.6V39.5421H16.6ZM19.2 22.1821H22.8V20.1821H19.2V22.1821ZM23.6638 21.6859L26.1838 17.3659L24.4562 16.3582L21.9362 20.6782L23.6638 21.6859ZM25.32 17.8621H34.68V15.8621H25.32V17.8621ZM33.8162 17.3659L36.3362 21.6859L38.0638 20.6782L35.5438 16.3582L33.8162 17.3659ZM37.2 22.1821H40.8V20.1821H37.2V22.1821ZM43.4 24.7821V39.5421H45.4V24.7821H43.4ZM43.4 39.5421C43.4 40.978 42.2359 42.1421 40.8 42.1421V44.1421C43.3405 44.1421 45.4 42.0826 45.4 39.5421H43.4ZM40.8 22.1821C42.2359 22.1821 43.4 23.3461 43.4 24.7821H45.4C45.4 22.2415 43.3405 20.1821 40.8 20.1821V22.1821ZM16.6 24.7821C16.6 23.3461 17.7641 22.1821 19.2 22.1821V20.1821C16.6595 20.1821 14.6 22.2415 14.6 24.7821H16.6ZM19.2 42.1421C17.7641 42.1421 16.6 40.978 16.6 39.5421H14.6C14.6 42.0826 16.6595 44.1421 19.2 44.1421V42.1421ZM34.4 31.2621C34.4 33.6921 32.4301 35.6621 30 35.6621V37.6621C33.5346 37.6621 36.4 34.7967 36.4 31.2621H34.4ZM30 35.6621C27.57 35.6621 25.6 33.6921 25.6 31.2621H23.6C23.6 34.7967 26.4654 37.6621 30 37.6621V35.6621ZM25.6 31.2621C25.6 28.832 27.57 26.8621 30 26.8621V24.8621C26.4654 24.8621 23.6 27.7274 23.6 31.2621H25.6ZM30 26.8621C32.4301 26.8621 34.4 28.832 34.4 31.2621H36.4C36.4 27.7274 33.5346 24.8621 30 24.8621V26.8621ZM40.8 42.1421H19.2V44.1421H40.8V42.1421Z"
          fill="white"/>
</svg>
