<svg width="61" height="60" viewBox="0 0 61 60" fill="none" xmlns="http://www.w3.org/2000/svg">
    <rect x="0.5" y="3.05176e-05" width="60" height="60" rx="30" fill="#7C4DFF"/>
    <path d="M20.4997 28.5C20.4997 21.8726 25.8719 16.5 32.4987 16.5C39.1256 16.5 44.4977 21.8726 44.4977 28.5C44.4977 30.2251 44.1338 31.8651 43.4785 33.3475L44.5 40.4989L38.3719 38.9667C36.6358 39.9431 34.6323 40.5 32.4987 40.5M17.5014 36C17.5014 37.0782 17.7289 38.1032 18.1384 39.0297L17.5 43.4993L21.3297 42.5417C22.4146 43.152 23.6667 43.5 25.0001 43.5C29.1415 43.5 32.4987 40.1422 32.4987 36C32.4987 31.8579 29.1415 28.5 25.0001 28.5C20.8587 28.5 17.5014 31.8579 17.5014 36Z"
          stroke="white" stroke-width="2" stroke-linecap="round" stroke-linejoin="round"/>
</svg>
