<svg width="26" height="26" viewBox="0 0 26 26" fill="none" xmlns="http://www.w3.org/2000/svg">
    <path d="M3.66644 11.6667C3.66644 5.77563 8.44167 1 14.3322 1C20.2228 1 24.998 5.77563 24.998 11.6667C24.998 13.2 24.6745 14.6578 24.092 15.9755L25 22.3323L19.5528 20.9704C18.0096 21.8383 16.2287 22.3333 14.3322 22.3333M1.00126 18.3333C1.00126 19.2917 1.20344 20.2028 1.56747 21.0264L1 24.9994L4.4042 24.1482C5.36857 24.6906 6.48153 25 7.66674 25C11.348 25 14.3322 22.0152 14.3322 18.3333C14.3322 14.6514 11.348 11.6667 7.66674 11.6667C3.9855 11.6667 1.00126 14.6514 1.00126 18.3333Z"
          stroke="#7C4DFF" stroke-width="2" stroke-linecap="round" stroke-linejoin="round"/>
</svg>
