<svg width="61" height="60" viewBox="0 0 61 60" fill="none" xmlns="http://www.w3.org/2000/svg">
    <rect x="0.5" y="3.05176e-05" width="60" height="60" rx="30" fill="#8369F5"/>
    <path d="M15.5 15L37.25 20.25L39.5 31.5L32 39L20.75 36.75L15.5 15ZM15.5 15L26.879 26.379M30.5 40.5L41 30L45.5 34.5L35 45L30.5 40.5ZM32 28.5C32 30.1569 30.6569 31.5 29 31.5C27.3431 31.5 26 30.1569 26 28.5C26 26.8432 27.3431 25.5 29 25.5C30.6569 25.5 32 26.8432 32 28.5Z"
          stroke="#1E1E1E" stroke-width="3" stroke-linecap="round" stroke-linejoin="round"/>
</svg>
