<svg width="48" height="48" viewBox="0 0 48 48" fill="none" xmlns="http://www.w3.org/2000/svg">
    <path d="M17.6 4.79999H9.06667C6.71025 4.79999 4.8 6.71024 4.8 9.06665V30.4V38.9333C4.8 41.2897 6.71025 43.2 9.06667 43.2H30.4H38.9333C41.2897 43.2 43.2 41.2897 43.2 38.9333V17.6V9.06665C43.2 6.71024 41.2897 4.79999 38.9333 4.79999H18M15.6 18.3305V15.9905M32.4 18.3305V15.9905M17.3053 31.2003C20.0416 33.3205 26.1777 33.3205 30.0013 31.2003M22.8 25.3504L23.2971 24.8658C23.7471 24.427 24 23.8318 24 23.2112V17.1605"
          stroke="#3B3B3B" stroke-width="3" stroke-linecap="round"/>
</svg>
