<svg width="60" height="60" viewBox="0 0 60 60" fill="none" xmlns="http://www.w3.org/2000/svg">
    <rect y="0.00195312" width="60" height="60" rx="30" fill="#AD957E"/>
    <path d="M25.6785 26.8785V32.4109C25.6785 35.1447 27.8313 37.3609 30.487 37.3609C33.1427 37.3609 35.2956 35.1447 35.2956 32.4109V25.4226C35.2956 23.9753 34.1558 22.8021 32.7499 22.8021C31.3439 22.8021 30.2042 23.9753 30.2042 25.4226V32.1197M22.617 15.6021H38.3545C40.286 15.6021 41.8517 17.2139 41.8517 19.2021L41.8513 40.8021C41.8512 42.7903 40.2855 44.402 38.3541 44.402L22.6169 44.402C20.6855 44.402 19.1198 42.7902 19.1198 40.8019L19.1199 19.202C19.1199 17.2138 20.6856 15.6021 22.617 15.6021Z"
          stroke="white" stroke-width="2" stroke-linecap="round"/>
</svg>
