<svg width="22" height="22" viewBox="0 0 22 22" fill="none" xmlns="http://www.w3.org/2000/svg">
    <path d="M19.9998 11.1984C19.9998 10.4584 19.9386 9.91839 19.806 9.3584H11.1836V12.6983H16.2447C16.1427 13.5284 15.5917 14.7783 14.3672 15.6183L14.35 15.7301L17.0763 17.7999L17.2652 17.8183C18.9998 16.2483 19.9998 13.9383 19.9998 11.1984Z"
          fill="#4285F4"/>
    <path d="M11.183 20.0003C13.6625 20.0003 15.7441 19.2002 17.2646 17.8203L14.3666 15.6202C13.5911 16.1502 12.5503 16.5202 11.183 16.5202C8.75448 16.5202 6.6933 14.9503 5.95854 12.7803L5.85084 12.7892L3.01608 14.9392L2.979 15.0402C4.48917 17.9802 7.59118 20.0003 11.183 20.0003Z"
          fill="#34A853"/>
    <path d="M5.95911 12.7798C5.76523 12.2198 5.65303 11.6198 5.65303 10.9998C5.65303 10.3798 5.76523 9.77979 5.94891 9.2198L5.94377 9.10054L3.07347 6.91602L2.97956 6.95979C2.35714 8.1798 2 9.54981 2 10.9998C2 12.4498 2.35714 13.8197 2.97956 15.0397L5.95911 12.7798Z"
          fill="#FBBC05"/>
    <path d="M11.1828 5.47995C12.9073 5.47995 14.0705 6.20994 14.7338 6.81997L17.3256 4.33998C15.7338 2.89 13.6623 2 11.1828 2C7.59096 2 4.48894 4.01997 2.97876 6.95992L5.94812 9.21993C6.69307 7.04995 8.75427 5.47995 11.1828 5.47995Z"
          fill="#EB4335"/>
</svg>
