<svg width="26" height="26" viewBox="0 0 26 26" fill="none" xmlns="http://www.w3.org/2000/svg">
    <path d="M24.175 11.5L22 9.3265V4C22 3.175 21.325 2.5 20.5 2.5H19C18.175 2.5 17.5 3.175 17.5 4V4.8295L14.5 1.8325C14.0905 1.4455 13.7155 1 13 1C12.2845 1 11.9095 1.4455 11.5 1.8325L1.825 11.5C1.357 11.9875 1 12.343 1 13C1 13.8445 1.648 14.5 2.5 14.5H4V23.5C4 24.325 4.675 25 5.5 25H8.5C9.32843 25 10 24.3284 10 23.5V17.5C10 16.675 10.675 16 11.5 16H14.5C15.325 16 16 16.675 16 17.5V23.5C16 24.3284 15.9216 25 16.75 25H20.5C21.325 25 22 24.325 22 23.5V14.5H23.5C24.352 14.5 25 13.8445 25 13C25 12.343 24.643 11.9875 24.175 11.5Z"
          stroke="#3B3B3B" stroke-width="2" stroke-linejoin="round"/>
</svg>
