<svg width="29" height="10" viewBox="0 0 29 10" fill="none" xmlns="http://www.w3.org/2000/svg">
    <path d="M8.10001 5.00005C8.10001 6.76736 6.66732 8.20005 4.90001 8.20005C3.1327 8.20005 1.70001 6.76736 1.70001 5.00005C1.70001 3.23274 3.1327 1.80005 4.90001 1.80005C6.66732 1.80005 8.10001 3.23274 8.10001 5.00005Z"
          stroke="#7C4DFF" stroke-width="2"/>
    <path d="M17.7 5.00005C17.7 6.76736 16.2673 8.20005 14.5 8.20005C12.7327 8.20005 11.3 6.76736 11.3 5.00005C11.3 3.23274 12.7327 1.80005 14.5 1.80005C16.2673 1.80005 17.7 3.23274 17.7 5.00005Z"
          stroke="#7C4DFF" stroke-width="2"/>
    <path d="M27.3 5.00005C27.3 6.76736 25.8673 8.20005 24.1 8.20005C22.3327 8.20005 20.9 6.76736 20.9 5.00005C20.9 3.23274 22.3327 1.80005 24.1 1.80005C25.8673 1.80005 27.3 3.23274 27.3 5.00005Z"
          stroke="#7C4DFF" stroke-width="2"/>
</svg>
