<svg width="60" height="60" viewBox="0 0 60 60" fill="none" xmlns="http://www.w3.org/2000/svg">
    <rect y="0.00195312" width="60" height="60" rx="30" fill="#34C759"/>
    <path d="M31.3066 21.4909C33.1064 21.7926 34.7414 22.6427 36.0466 23.9452C37.3518 25.2478 38.1968 26.8794 38.5059 28.6755M31.5814 15.6021C34.7826 16.1436 37.7022 17.6587 40.0241 19.969C42.346 22.2862 43.8573 25.1998 44.4 28.3944M41.8994 41.1045C41.8994 41.1045 40.1614 42.8116 39.7355 43.312C39.0417 44.0524 38.2242 44.402 37.1526 44.402C37.0495 44.402 36.9396 44.402 36.8366 44.3952C34.7963 44.2649 32.9003 43.4697 31.4783 42.791C27.5902 40.9126 24.176 38.2458 21.3389 34.866C18.9964 32.0484 17.4301 29.4433 16.3928 26.6463C15.7539 24.9393 15.5204 23.6093 15.6234 22.3547C15.6921 21.5526 16.0012 20.8876 16.5714 20.3186L18.9139 17.9809C19.2505 17.6656 19.6078 17.4942 19.9581 17.4942C20.3909 17.4942 20.7412 17.7547 20.9611 17.9741C20.9679 17.9809 20.9748 17.9878 20.9817 17.9946C21.4007 18.3854 21.7991 18.7899 22.2182 19.2218C22.4311 19.4411 22.651 19.6605 22.8708 19.8867L24.7462 21.7583C25.4744 22.485 25.4744 23.1568 24.7462 23.8835C24.547 24.0823 24.3546 24.2811 24.1554 24.4731C23.5784 25.0626 24.0317 24.6103 23.434 25.145C23.4203 25.1587 23.4065 25.1656 23.3997 25.1793C22.8089 25.7689 22.9188 26.3447 23.0424 26.7355C23.0493 26.756 23.0562 26.7766 23.063 26.7972C23.5508 27.9763 24.2377 29.0869 25.2819 30.41L25.2888 30.4169C27.1848 32.7478 29.1838 34.5645 31.3889 35.9561C31.6706 36.1344 31.9591 36.2784 32.2339 36.4155C32.4812 36.5389 32.7148 36.6554 32.914 36.7788C32.9415 36.7925 32.9689 36.8131 32.9964 36.8268C33.23 36.9433 33.4498 36.9982 33.6765 36.9982C34.2467 36.9982 34.6039 36.6417 34.7207 36.5251L36.0672 35.1814C36.3008 34.9483 36.6717 34.6672 37.1045 34.6672C37.5304 34.6672 37.8807 34.9346 38.0937 35.1677C38.1006 35.1745 38.1006 35.1745 38.1074 35.1814L41.8926 38.9588C42.6001 39.658 41.8994 41.1045 41.8994 41.1045Z"
          stroke="white" stroke-width="2" stroke-linecap="round" stroke-linejoin="round"/>
</svg>
