<svg width="61" height="60" viewBox="0 0 61 60" fill="none" xmlns="http://www.w3.org/2000/svg">
    <rect x="0.5" y="3.05176e-05" width="60" height="60" rx="30" fill="#34C759"/>
    <path d="M31.8066 21.4889C33.6064 21.7906 35.2414 22.6407 36.5466 23.9432C37.8518 25.2458 38.6967 26.8774 39.0059 28.6735M32.0814 15.6C35.2826 16.1416 38.2022 17.6567 40.5241 19.967C42.846 22.2842 44.3573 25.1978 44.9 28.3924M42.3994 41.1025C42.3994 41.1025 40.6614 42.8096 40.2355 43.31C39.5417 44.0504 38.7242 44.4 37.6525 44.4C37.5495 44.4 37.4396 44.4 37.3365 44.3932C35.2963 44.2629 33.4003 43.4677 31.9783 42.789C28.0901 40.9106 24.676 38.2438 21.8389 34.864C19.4963 32.0464 17.9301 29.4413 16.8928 26.6443C16.2539 24.9372 16.0203 23.6073 16.1234 22.3527C16.1921 21.5506 16.5012 20.8856 17.0714 20.3166L19.4139 17.9789C19.7505 17.6635 20.1077 17.4922 20.4581 17.4922C20.8909 17.4922 21.2412 17.7527 21.461 17.972C21.4679 17.9789 21.4748 17.9858 21.4816 17.9926C21.9007 18.3834 22.2991 18.7878 22.7182 19.2197C22.9311 19.4391 23.1509 19.6585 23.3708 19.8847L25.2461 21.7563C25.9743 22.483 25.9743 23.1548 25.2461 23.8815C25.0469 24.0803 24.8546 24.2791 24.6554 24.4711C24.0783 25.0606 24.5316 24.6083 23.934 25.143C23.9202 25.1567 23.9065 25.1636 23.8996 25.1773C23.3088 25.7668 23.4188 26.3427 23.5424 26.7335C23.5493 26.754 23.5561 26.7746 23.563 26.7952C24.0508 27.9743 24.7377 29.0849 25.7819 30.408L25.7888 30.4149C27.6847 32.7457 29.6838 34.5625 31.8889 35.9541C32.1706 36.1324 32.4591 36.2763 32.7339 36.4134C32.9812 36.5368 33.2147 36.6534 33.4139 36.7768C33.4414 36.7905 33.4689 36.8111 33.4964 36.8248C33.7299 36.9413 33.9498 36.9962 34.1765 36.9962C34.7466 36.9962 35.1039 36.6397 35.2206 36.5231L36.5672 35.1794C36.8007 34.9463 37.1717 34.6652 37.6045 34.6652C38.0304 34.6652 38.3807 34.9326 38.5937 35.1657C38.6005 35.1725 38.6005 35.1725 38.6074 35.1794L42.3925 38.9568C43.1001 39.656 42.3994 41.1025 42.3994 41.1025Z"
          stroke="white" stroke-width="2" stroke-linecap="round" stroke-linejoin="round"/>
</svg>
